<?xml version="1.0" encoding="utf-8"?>
<!-- Generator: Adobe Illustrator 19.1.0, SVG Export Plug-In . SVG Version: 6.00 Build 0)  -->
<svg version="1.1" id="Layer_2" xmlns="http://www.w3.org/2000/svg" xmlns:xlink="http://www.w3.org/1999/xlink" x="0px" y="0px"
	 viewBox="0 0 30 30" style="enable-background:new 0 0 30 30;" xml:space="preserve">
<style type="text/css">
	.st0{fill:#231F20;}
</style>
<g>
	<path id="Facebook_1_" class="st0" d="M12.9,10.7c0,0.4,0,2.2,0,2.2h-1.6v2.8h1.6v7.5h3.3v-7.5h2.2c0,0,0.2-1.3,0.3-2.8
		c-0.3,0-2.5,0-2.5,0s0-1.6,0-1.9c0-0.3,0.4-0.6,0.7-0.6s1.1,0,1.8,0c0-0.4,0-1.7,0-2.8c-0.9,0-2,0-2.5,0
		C12.8,7.6,12.9,10.3,12.9,10.7z"/>
</g>
</svg>
