<?xml version="1.0" encoding="utf-8"?>
<!-- Generator: Adobe Illustrator 21.1.0, SVG Export Plug-In . SVG Version: 6.00 Build 0)  -->
<svg version="1.1" id="Layer_1" xmlns="http://www.w3.org/2000/svg" xmlns:xlink="http://www.w3.org/1999/xlink" x="0px" y="0px"
	 viewBox="0 0 758.3 142.1" style="enable-background:new 0 0 758.3 142.1;" xml:space="preserve">
<style type="text/css">
	.st0{fill:#FFFFFF;}
	.st1{fill:#19F9BE;}
	.st2{fill:#50E3C2;}
</style>
<path class="st0" d="M214.5,139.4L149.2,50v89.4h-29V2.2h29.9l63.5,86.2V2.2h29v137.2H214.5z"/>
<path class="st0" d="M263.2,71c0-43.3,32.6-71,73.3-71c28.2,0,46.5,14.3,56.7,30.8l-24.1,13c-6.3-9.8-17.9-17.9-32.6-17.9
	c-25,0-43.3,19.2-43.3,45.1s17.9,45.1,43.3,45.1c12.1,0,23.2-5.4,29-10.3V89.4h-36.2V63.9h65.2v52.3c-13.9,15.6-33.5,25.9-58.1,25.9
	C295.8,141.7,263.2,113.9,263.2,71z"/>
<g>
	<polygon class="st1" points="0,56.7 0,82.2 29,82.7 95.6,82.7 95.6,56.7 29,56.7 	"/>
	<polygon class="st1" points="0,28.2 29,28.2 97,28.2 97,2.2 0,2.2 	"/>
	<polygon class="st1" points="0,113.5 0,139.4 97,139.4 97,113.5 29,113.5 	"/>
</g>
<rect x="629.6" class="st0" width="29" height="139.4"/>
<polygon class="st0" points="522.8,0 473.2,139.4 503.6,139.4 521,86.7 521,86.7 538.9,31.7 564.4,110.8 564.4,110.8 573.3,139.4 
	605,139.4 555.9,0 "/>
<rect x="435.4" y="1.3" class="st0" width="11.5" height="139.4"/>
<path class="st2" d="M722.6,80.4c9.8-1.8,17-6.3,21.9-13c4.9-6.7,7.6-15.2,7.6-24.6c0-8-1.3-14.7-4-20.1c-2.7-5.4-6.7-9.8-11.2-13
	c-4.9-3.1-10.3-5.4-16.5-6.7c-6.3-1.3-13-2.2-19.7-2.2h-19.2v25.9h16.1c2.7,0,5.4,0,8.5,0.4c2.7,0.4,5.4,1.3,7.6,2.2s4,2.7,5.4,4.9
	c1.3,2.2,2.2,4.9,2.2,8.5c0,3.6-0.9,6.7-2.2,8.5c-1.8,2.2-3.6,3.6-6.3,4.5c-2.2,0.9-5.4,1.3-8,1.8c-3.1,0-5.8,0.4-8.5,0.4h-14.3
	v25.5h11.6l28.6,55h36.2L722.6,80.4z"/>
</svg>
