<?xml version="1.0" encoding="utf-8"?>
<!-- Generator: Adobe Illustrator 21.1.0, SVG Export Plug-In . SVG Version: 6.00 Build 0)  -->
<svg version="1.1" id="Layer_1" xmlns="http://www.w3.org/2000/svg" xmlns:xlink="http://www.w3.org/1999/xlink" x="0px" y="0px"
	 viewBox="0 0 169.5 31.8" style="enable-background:new 0 0 169.5 31.8;" xml:space="preserve">
<style type="text/css">
	.st0{fill:#8D3EB0;}
	.st1{fill:#331249;}
</style>
<path class="st0" d="M48,31.2l-14.6-20v20h-6.5V0.5h6.7l14.2,19.3V0.5h6.5v30.7H48z"/>
<path class="st0" d="M58.9,15.9C58.9,6.2,66.2,0,75.3,0C81.6,0,85.7,3.2,88,6.9l-5.4,2.9c-1.4-2.2-4-4-7.3-4
	c-5.6,0-9.7,4.3-9.7,10.1s4,10.1,9.7,10.1c2.7,0,5.2-1.2,6.5-2.3V20h-8.1v-5.7h14.6V26c-3.1,3.5-7.5,5.8-13,5.8
	C66.2,31.7,58.9,25.5,58.9,15.9z"/>
<g>
	<polygon class="st1" points="0,12.7 0,18.4 6.5,18.5 21.4,18.5 21.4,12.7 6.5,12.7 	"/>
	<polygon class="st1" points="0,6.3 6.5,6.3 21.7,6.3 21.7,0.5 0,0.5 	"/>
	<polygon class="st1" points="0,25.4 0,31.2 21.7,31.2 21.7,25.4 6.5,25.4 	"/>
</g>
<rect x="140.9" class="st0" width="6.5" height="31.2"/>
<polygon class="st0" points="117,0 105.9,31.2 112.7,31.2 116.6,19.4 116.6,19.4 120.6,7.1 126.3,24.8 126.3,24.8 128.3,31.2 
	135.4,31.2 124.4,0 "/>
<rect x="97.4" y="0.3" class="st1" width="2.6" height="31.2"/>
<path class="st1" d="M161.7,18c2.2-0.4,3.8-1.4,4.9-2.9c1.1-1.5,1.7-3.4,1.7-5.5c0-1.8-0.3-3.3-0.9-4.5c-0.6-1.2-1.5-2.2-2.5-2.9
	c-1.1-0.7-2.3-1.2-3.7-1.5s-2.9-0.5-4.4-0.5h-4.3V6h3.6c0.6,0,1.2,0,1.9,0.1c0.6,0.1,1.2,0.3,1.7,0.5s0.9,0.6,1.2,1.1
	s0.5,1.1,0.5,1.9c0,0.8-0.2,1.5-0.5,1.9c-0.4,0.5-0.8,0.8-1.4,1c-0.5,0.2-1.2,0.3-1.8,0.4c-0.7,0-1.3,0.1-1.9,0.1h-3.2v5.7h2.6
	l6.4,12.3h8.1L161.7,18z"/>
</svg>
