<?xml version="1.0" encoding="utf-8"?>
<!-- Generator: Adobe Illustrator 21.1.0, SVG Export Plug-In . SVG Version: 6.00 Build 0)  -->
<svg version="1.1" id="Layer_1" xmlns="http://www.w3.org/2000/svg" xmlns:xlink="http://www.w3.org/1999/xlink" x="0px" y="0px"
	 viewBox="0 0 88.3 31.7" style="enable-background:new 0 0 88.3 31.7;" xml:space="preserve">
<style type="text/css">
	.st0{fill:#FFFFFF;}
	.st1{fill:#EE7541;}
</style>
<path class="st0" d="M48,31.2l-14.6-20v20h-6.5V0.5h6.7l14.2,19.3V0.5h6.5v30.7H48z"/>
<path class="st0" d="M58.9,15.9C58.9,6.2,66.2,0,75.3,0c6.3,0,10.4,3.2,12.7,6.9l-5.4,2.9c-1.4-2.2-4-4-7.3-4
	c-5.6,0-9.7,4.3-9.7,10.1c0,5.8,4,10.1,9.7,10.1c2.7,0,5.2-1.2,6.5-2.3v-3.7h-8.1v-5.7h14.6V26c-3.1,3.5-7.5,5.8-13,5.8
	C66.2,31.7,58.9,25.5,58.9,15.9z"/>
<g>
	<polygon class="st1" points="0,12.7 0,18.4 6.5,18.5 21.4,18.5 21.4,12.7 6.5,12.7 	"/>
	<polygon class="st1" points="0,6.3 6.5,6.3 21.7,6.3 21.7,0.5 0,0.5 	"/>
	<polygon class="st1" points="0,25.4 0,31.2 21.7,31.2 21.7,25.4 6.5,25.4 	"/>
</g>
</svg>
