<?xml version="1.0" encoding="utf-8"?>
<!-- Generator: Adobe Illustrator 21.1.0, SVG Export Plug-In . SVG Version: 6.00 Build 0)  -->
<svg version="1.1" id="Layer_1" xmlns="http://www.w3.org/2000/svg" xmlns:xlink="http://www.w3.org/1999/xlink" x="0px" y="0px"
	 viewBox="0 0 32 32" style="enable-background:new 0 0 32 32;" xml:space="preserve">
<style type="text/css">
	.st0{fill:#FFFFFF;}
</style>
<g id="globe-2">
	<polygon class="st0" points="13.2,6.3 13.2,6.3 13.2,6.3 	"/>
	<path class="st0" d="M15.6,1C7.8,1,1.5,7.4,1.5,15.2s6.4,14.2,14.2,14.2c7.8,0,14.2-6.4,14.2-14.2C29.8,7.4,23.4,1,15.6,1z
		 M28.6,15.2c0,0.2,0,0.5,0,0.7c-0.1-0.2-0.2-0.5-0.3-0.7c0-0.2-0.3-0.9-0.3-0.9s-0.3-0.4-0.5-0.5c-0.2-0.1-0.3-0.3-0.7-0.5
		c-0.3-0.2-0.5-0.3-0.8-0.3c-0.3,0-0.6-0.4-0.9-0.6c-0.3-0.2-0.4-0.1-0.4-0.1S25,13,25,13.1s0.4,0.4,0.9,0.3c0,0,0.3,0.5,0.4,0.7
		s0,0.3-0.3,0.5c-0.3,0.2-0.2,0.1-0.4,0.3c-0.1,0.1-0.6,0.4-0.8,0.5c-0.1,0.1-0.7,0.4-1,0.1c-0.1-0.1-0.1-0.4-0.2-0.6
		c-0.1-0.2-1.1-1.7-1.6-2.4c-0.1-0.1-0.3-0.5-0.4-0.6c-0.1-0.1,0.3-0.1,0.3-0.1s0-0.3,0-0.6c0-0.2,0-0.6,0-0.6s-0.5,0.3-0.6,0.4
		c-0.1,0.1-0.3-0.2-0.5-0.4c-0.2-0.2-0.4-0.5-0.4-0.8c0-0.2,0.2-0.3,0.2-0.3L21,9.2c0,0,0.5-0.1,0.9,0c0.3,0,0.9,0.1,0.9,0.1
		s0.1-0.3,0-0.5c-0.2-0.1-0.6-0.4-0.8-0.3c-0.2,0,0.1-0.2,0.3-0.4l-0.5-0.1c0,0-0.5,0.2-0.6,0.3c-0.1,0-0.4,0.1-0.6,0.4
		c-0.2,0.2,0.1,0.6-0.1,0.7c-0.2,0.1-0.3,0.1-0.5,0.2c-0.1,0-0.6,0-0.6,0c-0.5,0-0.2,0.5,0,0.6l-0.4-0.5l-0.3-0.7
		c0,0-0.4-0.3-0.6-0.4c-0.2-0.1-0.8-0.4-0.8-0.4l0,0.4l0.6,0.6l0,0l0.3,0.4l-0.6,0V9.1C16.8,9,17,8.8,16.9,8.8
		c-0.1-0.1-0.5-0.3-0.5-0.3s-0.6,0.1-0.7,0.1c-0.1,0-0.2,0.2-0.5,0.3C15,9,14.8,9.1,14.7,9.3s-0.4,0.6-0.6,0.8
		c-0.2,0.2-0.6,0.1-0.7,0.1c-0.1,0-0.9-0.2-0.9-0.2V9.2c0,0,0.1-0.5,0-0.6L13,8.5l0.7-0.1L14,8.2l0.3-0.4c0,0-0.3-0.2-0.1-0.6
		c0.1-0.2,0.5-0.2,0.7-0.3c0.2-0.1,0.5-0.2,0.5-0.2s0.3-0.3,0.7-0.6c0,0,0.2-0.1,0.5-0.2c0,0,0.8,0.7,1,0.7s0.7-0.3,0.7-0.3
		s0.1-0.4,0.1-0.6c0-0.1-0.3-0.6-0.3-0.6s-0.1,0.2-0.3,0.4s-0.2,0.4-0.2,0.4s-0.7,0-0.7-0.2c0-0.1-0.1-0.4-0.2-0.5
		c0-0.1-0.4-0.1-0.7,0c-0.3,0.1,0-0.5,0-0.5s0.3-0.4,0.5-0.4s0.6-0.2,0.8-0.3c0.2,0,0.8-0.3,1-0.3c0.2,0,0.5,0.1,0.7,0.1
		s0.7,0,0.7,0l1-0.1c0,0,0.9,0.3,0.6,0.5c0,0,0.3,0.2,0.5,0.4c0.1,0.1,0.5-0.1,0.7-0.2C26.1,6.5,28.6,10.6,28.6,15.2z M5.3,7.6
		c0,0.2-0.3,0.2,0,0.7c0.3,0.6,0,0.9,0,0.9s-0.8,0.6-1,0.7s-0.5,0.6-0.3,0.5c0.2-0.1,0.5-0.3,0.3,0.1c-0.2,0.4-0.7,1-0.8,1.3
		S3,12.6,3,12.9S2.8,13.8,2.9,14c0,0.2-0.1,0.7-0.2,0.9C2.8,12.1,3.7,9.6,5.3,7.6C5.3,7.6,5.3,7.6,5.3,7.6z M6.9,5.7
		c1.2-1.1,2.6-2,4.1-2.6c-0.2,0.2-0.3,0.4-0.3,0.4s-0.3,0-1,0.7C9.1,4.9,9.2,4.7,9.1,4.9S9,5.1,8.6,5.4C8.3,5.6,8.1,5.9,8.1,5.9
		L7.6,6.1L7.1,5.9c0,0-0.4,0.1-0.3,0C6.8,5.8,6.8,5.8,6.9,5.7z M12.7,6.8l-0.2-0.3l0.2-0.4l0.5,0.2V5.4l0.4-0.2L14,5.7l0.6,0.6
		l-0.4,0.3l-1,0.2V6.3L12.7,6.8z M19.1,11.4c0.1-0.1,0.5,0.1,0.5,0.1s1.2,0.2,1.4,0.4c0.2,0.1,0.5,0.2,0.6,0.4
		c0.1,0.1,0.4,0.6,0.5,0.7c0,0.1,0.3,0.7,0.3,0.9c0,0.2,0.2,0.7,0.3,0.9c0.1,0.2,1,1.3,1.3,1.8l0.9-0.1c0,0-0.1,0.4-0.2,0.6
		c-0.1,0.1-0.4,0.5-0.5,0.7c-0.1,0.2-0.3,0.5-0.6,0.7c-0.3,0.2-0.3,0.5-0.4,0.7c-0.1,0.2-0.3,0.6-0.3,0.6s0.1,1,0.1,1.2
		s-0.3,0.7-0.3,0.7l-0.4,0.4L21.5,23l0,0.7c0,0-0.4,0.3-0.7,0.5c-0.2,0.2-0.2,0.3-0.4,0.5c-0.2,0.2-1,0.5-1.2,0.6s-1.3,0.2-1.3,0.2
		v-0.4l0-0.5c0,0-0.1-0.6-0.3-0.8s-0.1-0.5-0.3-0.7c-0.2-0.2-0.3-0.4-0.4-0.6c0-0.1,0.1-0.6,0.1-0.6s0.2-0.5,0.3-0.7
		c0.1-0.2,0-0.5-0.1-0.7s-0.1-0.7-0.1-0.8c0-0.1-0.4-0.4-0.5-0.5s-0.1-0.3-0.1-0.5c0-0.2-0.1-0.6-0.1-1c0-0.3-0.4-0.1-0.7,0
		s-0.5-0.1-0.5-0.4s-0.5,0-0.9,0.1c-0.3,0.2-0.7,0.2-1.1,0.3c-0.4,0.1-0.6-0.1-0.6-0.1s-0.3-0.3-0.6-0.4c-0.2-0.1-0.5-0.4-0.7-0.7
		c-0.2-0.2-0.7-1-0.7-1.3c0-0.3,0-0.5,0-0.8s0-0.5,0-0.8c0-0.2,0.2-0.5,0.3-0.8c0.1-0.2,0.7-0.5,0.8-0.6c0.1-0.1,0.5-0.4,0.5-0.6
		c0-0.2,0.2-0.3,0.3-0.5c0.1-0.2,0.4-0.7,0.9-0.5c0,0,0.4,0,0.5-0.1s0.5-0.2,0.7-0.3c0.2-0.1,0.7-0.1,0.7-0.1s0.4,0.2,0.5,0.2
		s0.6-0.1,0.6-0.1s0.2,0.7,0.2,0.9s0.1,0.3,0.4,0.4C17.4,11.6,18.6,11.8,19.1,11.4z M24.7,21c0,0.1,0,0.5-0.1,0.7
		c-0.1,0.2-0.1,0.5-0.2,0.7c0,0.2-0.3,0.6-0.4,0.7c-0.1,0.1-0.4,0.4-0.5,0.4c-0.1,0-0.2-0.3-0.2-0.5c0-0.2,0.3-0.7,0.3-0.7
		s0-0.3,0.1-0.5c0-0.2,0.6-0.4,0.6-0.4l0.4-0.7C24.6,20.6,24.7,20.8,24.7,21z M3,18.1c0.1,0,0.2,0.1,0.3,0.2
		c0.2,0.2,0.3,0.2,0.5,0.3c0.2,0.1,0.3,0.2,0.6,0.4s0.2,0,0.6,0.5c0.4,0.4,0.3,0.4,0.4,0.7s0.2,0.5,0.3,0.6c0.1,0.1,0.4,0.2,0.5,0.3
		s0.4,0.2,0.5,0.2c0.1,0,0.6,0.4,0.8,0.5C8,21.9,8,22.3,8,22.3L7.7,23l-0.2,0.7l0.2,0.6c0,0-0.3,0.2-0.5,0.2c-0.2,0-0.2,0.1-0.4,0.1
		C4.9,22.9,3.6,20.6,3,18.1z"/>
</g>
</svg>
